<?xml version="1.0" encoding="UTF-8" standalone="no"?>
<svg
   xmlns:dc="http://purl.org/dc/elements/1.1/"
   xmlns:cc="http://creativecommons.org/ns#"
   xmlns:rdf="http://www.w3.org/1999/02/22-rdf-syntax-ns#"
   xmlns:svg="http://www.w3.org/2000/svg"
   xmlns="http://www.w3.org/2000/svg"
   width="259.14005mm"
   height="65.839378mm"
   viewBox="0 0 259.14005 65.839378"
   version="1.1"
   id="svg8">
  <defs
     id="defs2" />
  <metadata
     id="metadata5">
    <rdf:RDF>
      <cc:Work
         rdf:about="">
        <dc:format>image/svg+xml</dc:format>
        <dc:type
           rdf:resource="http://purl.org/dc/dcmitype/StillImage" />
        <dc:title></dc:title>
      </cc:Work>
    </rdf:RDF>
  </metadata>
  <g
     id="layer1"
     transform="translate(61.060841,-196.21318)">
    <g
       id="g341"
       clip-path="none"
       transform="matrix(0.88555775,0,0,0.88555775,15.31588,27.758235)">
      <path
         style="fill:#c70d2e;stroke-width:0.264583"
         d="m 20.644647,241.79252 c -3.3234,-0.64904 -7.016031,-3.68783 -8.225902,-6.76937 -0.798565,-2.03395 -0.993907,-5.7926 -0.406127,-7.81449 0.596685,-2.05253 2.263402,-4.47384 3.962749,-5.75686 4.692923,-3.54318 10.975661,-3.0334 14.995258,1.21673 6.038816,6.38516 2.783544,17.21666 -5.715357,19.0171 -2.032841,0.43065 -2.855217,0.44971 -4.610621,0.10689 z m 41.804168,-2.58703 c -2.371802,-0.78046 -4.095163,-2.29885 -5.111491,-4.50357 -0.462177,-1.0026 -0.56279,-1.73228 -0.56923,-4.12827 -0.0071,-2.66206 0.05554,-3.03944 0.73464,-4.42236 1.986425,-4.04516 6.846298,-5.62347 10.758726,-3.49406 1.636585,0.89074 2.499363,1.85216 3.423917,3.81538 0.594662,1.26271 0.685314,1.80519 0.685314,4.10104 0,2.29584 -0.09065,2.83832 -0.685314,4.10104 -1.441235,3.06034 -3.548692,4.52687 -6.705248,4.66603 -1.02842,0.0453 -2.167512,-0.0155 -2.531314,-0.13523 z m 4.723943,-3.01867 c 1.623888,-1.07464 2.287516,-2.70306 2.287516,-5.61317 0,-1.97085 -0.108125,-2.60086 -0.627367,-3.65548 -1.222648,-2.48329 -4.01687,-3.46789 -6.381957,-2.2488 -1.974731,1.01788 -2.909602,2.91495 -2.909602,5.90428 0,0.87312 0.119645,2.01822 0.265875,2.54466 0.95459,3.43659 4.547486,4.9334 7.365535,3.06851 z m 12.496446,2.68884 c -3.629743,-1.43486 -5.706719,-5.95851 -4.786125,-10.42416 0.574476,-2.78671 1.8445,-4.63303 3.990242,-5.80088 3.803214,-2.06997 9.161045,-0.44559 10.385756,3.14874 0.472533,1.38681 0.237361,1.73158 -1.181105,1.73158 -0.863037,0 -1.082125,-0.1391 -1.733021,-1.10033 -1.16685,-1.72316 -1.994165,-2.20831 -3.749318,-2.19869 -1.98601,0.0109 -3.144703,0.72688 -4.150675,2.56477 -0.682223,1.24641 -0.763939,1.65042 -0.763939,3.77696 0,2.12653 0.08172,2.53054 0.763939,3.77695 1.005732,1.83746 2.178378,2.56423 4.137398,2.56423 1.968397,0 3.162867,-0.86956 3.893667,-2.83456 0.502512,-1.35117 0.548338,-1.39228 1.642271,-1.47307 1.554311,-0.1148 1.717345,0.14566 1.201624,1.91969 -0.504417,1.73513 -1.840426,3.35879 -3.43743,4.17754 -1.601332,0.82096 -4.376221,0.89743 -6.213284,0.17123 z m -39.118497,0.0765 c -0.260575,-0.1654 -0.31909,-2.05161 -0.264584,-8.52876 l 0.06998,-8.31639 1.081212,-0.0792 c 0.674476,-0.0494 1.193583,0.0562 1.379929,0.28068 0.172357,0.20768 0.33056,1.64022 0.373996,3.38654 l 0.07528,3.0266 h 3.571875 3.571875 l 0.132292,-3.0427 c 0.07276,-1.67349 0.228615,-3.19154 0.346344,-3.37344 0.273064,-0.42191 2.092892,-0.43149 2.511156,-0.0132 0.232957,0.23296 0.3175,2.44974 0.3175,8.32507 0,7.64605 -0.0231,8.01993 -0.511773,8.28145 -0.746702,0.39963 -1.770587,0.33499 -2.247453,-0.14188 -0.335098,-0.3351 -0.415774,-1.07952 -0.415774,-3.83646 v -3.42068 h -3.704167 -3.704167 v 3.56257 c 0,3.25141 -0.0447,3.58648 -0.511773,3.83645 -0.606997,0.32486 -1.603653,0.35056 -2.071751,0.0534 z m 52.52363,-0.0653 c -0.42518,-0.24764 -0.463021,-0.93852 -0.463021,-8.45358 v -8.1839 l 0.629489,-0.15799 c 0.346218,-0.0869 0.971296,-0.11893 1.389063,-0.0712 l 0.759574,0.0868 0.07383,3.50573 c 0.05689,2.70145 0.154456,3.50573 0.425289,3.50573 0.193307,0 1.915832,-1.60734 3.827836,-3.57188 l 3.476363,-3.57187 h 1.30825 c 0.71953,0 1.38979,0.13194 1.48945,0.2932 0.10425,0.16868 -1.06891,1.54687 -2.76251,3.24528 -1.61905,1.62365 -2.94372,3.15236 -2.94372,3.39713 0,0.24477 1.42875,2.46209 3.175,4.92738 1.74625,2.46528 3.175,4.6019 3.175,4.74803 0,0.52456 -1.55848,0.76508 -2.79899,0.43197 -0.33401,-0.0897 -1.55829,-1.64697 -3.11725,-3.96513 -1.411967,-2.0996 -2.667333,-3.81744 -2.789703,-3.81744 -0.122367,0 -0.713902,0.53312 -1.314519,1.18471 l -1.092031,1.18471 v 2.62344 c 0,2.14816 -0.07582,2.65253 -0.418515,2.78404 -0.616082,0.23641 -1.501902,0.18176 -2.028881,-0.12518 z m 16.092333,-0.13 c -0.35885,-0.35885 -0.41577,-1.46595 -0.41577,-8.08718 0,-4.78213 0.10316,-7.86416 0.27389,-8.18319 0.25737,-0.4809 0.60453,-0.51153 5.75469,-0.50772 3.01444,0.002 5.63786,0.10365 5.82983,0.22537 0.21871,0.13868 0.31751,0.60645 0.26459,1.25272 l -0.0845,1.0314 -4.36562,0.13229 -4.36563,0.13229 v 2.11667 2.11667 l 4.03158,0.073 c 4.00928,0.0726 4.03247,0.0765 4.19108,0.70851 0.0877,0.34951 0.0822,0.87914 -0.0124,1.17694 -0.16181,0.50982 -0.40665,0.54572 -4.19107,0.61441 l -4.01923,0.0729 v 2.38125 2.38125 l 4.49792,0.13229 4.49792,0.13229 0.087,0.91437 c 0.14443,1.51848 -0.16862,1.59918 -6.20406,1.59918 -4.51494,0 -5.41968,-0.0652 -5.77027,-0.41578 z m 19.51708,0.21186 c -0.1986,-0.12636 -0.33983,-1.36847 -0.39815,-3.50168 l -0.0904,-3.30586 -2.99551,-4.86668 c -3.24275,-5.26833 -3.25161,-5.30818 -1.18259,-5.31573 1.3129,-0.005 1.53485,0.24493 3.93539,4.42772 0.85603,1.49159 1.69796,2.71198 1.87094,2.71198 0.17299,0 1.11318,-1.39898 2.08931,-3.10885 0.97614,-1.70987 1.95703,-3.31722 2.17977,-3.57188 0.50156,-0.57345 2.64877,-0.65077 2.85899,-0.10295 0.076,0.19804 -1.1779,2.54183 -2.78643,5.20842 l -2.92461,4.84834 v 3.07304 c 0,2.03737 -0.107,3.18005 -0.3175,3.39055 -0.35014,0.35015 -1.75537,0.42142 -2.23923,0.11358 z"
         id="path236" />
      <path
         style="fill:#4c95c9;stroke-width:0.264583"
         d="m -42.580235,258.10301 c -0.618715,-0.7455 -0.04904,-1.40274 1.919206,-2.2142 1.048692,-0.43236 5.95484,-2.45702 10.902548,-4.49925 31.896565,-13.16572 38.5845255,-15.87088 38.9196494,-15.74228 0.4534271,0.174 0.7956286,1.36885 0.4706673,1.64341 -0.2666232,0.22528 -0.5977017,0.36347 -20.0757327,8.37955 -8.003646,3.29386 -18.26627,7.52516 -22.80583,9.40289 -4.539559,1.87773 -8.424278,3.41406 -8.632706,3.41406 -0.208431,0 -0.522441,-0.17288 -0.697802,-0.38418 z m 35.2451928,-4.55355 c -0.5714471,-0.23058 -0.360688,-1.09074 0.396875,-1.61973 0.4001823,-0.27945 4.8796365,-3.03844 9.9543451,-6.13111 8.3021831,-5.05958 9.2897671,-5.59431 9.8557301,-5.33645 0.749326,0.34142 0.787762,0.60714 0.165967,1.14737 -0.787265,0.684 -19.7168961,12.15471 -19.9586485,12.09426 -0.045948,-0.0115 -0.2323677,-0.0809 -0.4142687,-0.15434 z M -61.464385,241.64205 c -0.09701,-0.097 -0.176389,-0.44942 -0.176389,-0.78313 0,-0.47724 0.211771,-0.66376 0.992188,-0.87389 0.545703,-0.14694 8.73125,-1.11034 18.190105,-2.14089 9.458854,-1.03055 24.626735,-2.70105 33.7063992,-3.71221 9.07966693,-1.01117 16.6133179,-1.83849 16.7414476,-1.83849 0.1281272,0 0.3539702,0.31828 0.5018697,0.70728 0.1991413,0.52378 0.1802791,0.79345 -0.072694,1.0394 -0.3305096,0.32133 -66.1504885,7.78293 -68.6261555,7.77972 -0.59421,-7.9e-4 -1.159757,-0.0808 -1.256771,-0.17779 z m 205.669455,-2.45228 c -3.76965,-1.15083 -5.68854,-4.10383 -5.68854,-8.75416 0,-2.31423 0.0709,-2.6633 0.87101,-4.28838 1.55426,-3.15682 4.14354,-4.64863 7.5885,-4.3721 1.83099,0.14698 3.04577,0.6753 4.32921,1.88283 1.06852,1.00532 1.63107,2.02324 1.63107,2.95137 0,0.59861 -0.0981,0.68086 -0.72565,0.60845 -0.50508,-0.0583 -0.83718,-0.32498 -1.09257,-0.87747 -0.87979,-1.9032 -2.71377,-3.03108 -4.92866,-3.03108 -3.59022,0 -5.95312,2.88338 -5.95312,7.26442 0,4.3698 2.35502,7.25429 5.93574,7.27023 2.50104,0.0111 4.22032,-1.29583 5.15553,-3.91915 0.36016,-1.01026 0.5702,-1.24962 1.15669,-1.31813 0.65391,-0.0764 0.71662,-0.006 0.71662,0.80794 0,1.23527 -1.18145,3.48626 -2.32416,4.42818 -1.67285,1.37891 -4.61892,1.97373 -6.67167,1.34705 z m 28.51126,-0.12906 c -2.22046,-0.79249 -3.44991,-2.25086 -3.90049,-4.62675 -0.14801,-0.78045 -0.2691,-3.76942 -0.2691,-6.64215 0,-5.51423 0.10226,-5.98848 1.24406,-5.76964 0.4377,0.0839 0.4863,0.59854 0.60802,6.438 0.11944,5.73018 0.1837,6.43409 0.66146,7.2452 0.85559,1.45257 1.77381,1.97354 3.69383,2.0958 2.31762,0.14757 3.85206,-0.57162 4.62464,-2.16759 0.50099,-1.03491 0.54507,-1.60866 0.54507,-7.09545 0,-6.31042 0.0819,-6.7391 1.24407,-6.51569 0.43723,0.0841 0.48239,0.55166 0.55798,5.77654 0.10298,7.11636 -0.0716,8.08284 -1.76398,9.76798 -0.74244,0.73926 -1.65967,1.3514 -2.31772,1.54682 -1.41007,0.41874 -3.67419,0.39436 -4.92784,-0.0531 z m -16.55209,-0.2056 c -0.23292,-0.23292 -0.3175,-2.44461 -0.3175,-8.30198 0,-8.46567 0.0431,-8.76152 1.24406,-8.5307 0.44119,0.0848 0.48533,0.64826 0.60802,7.76091 l 0.13229,7.66947 4.40458,0.0724 c 3.49582,0.0575 4.47147,0.15301 4.72875,0.46302 0.25608,0.30856 0.25499,0.47397 -0.005,0.78748 -0.27183,0.32753 -1.21594,0.39688 -5.40344,0.39688 -3.59371,0 -5.16669,-0.0926 -5.39156,-0.3175 z m 29.06056,-0.19428 c -0.4313,-0.80587 -0.36714,-15.66373 0.0702,-16.26185 0.3111,-0.42548 0.77401,-0.46203 4.82865,-0.3813 3.94943,0.0786 4.59491,0.15415 5.40967,0.63277 1.33315,0.78316 2.11756,2.07292 2.11756,3.4818 0,1.35094 -0.28315,1.99754 -1.38485,3.16222 l -0.79219,0.83749 0.82145,0.42479 c 2.30566,1.1923 2.70896,4.71154 0.79039,6.89668 -1.21044,1.37862 -2.7047,1.71918 -7.5433,1.71918 -3.7271,0 -4.06516,-0.0401 -4.3176,-0.51178 z m 9.24195,-1.42139 c 1.35977,-0.46833 2.20665,-1.85696 2.04293,-3.34977 -0.24337,-2.21897 -1.77978,-2.91534 -6.43724,-2.91767 -2.44525,-0.001 -2.97566,0.0699 -3.10885,0.41704 -0.0883,0.23018 -0.1606,1.53013 -0.1606,2.88877 0,1.35865 0.0723,2.6586 0.1606,2.88878 0.1347,0.35103 0.67868,0.41611 3.37344,0.40358 1.76704,-0.008 3.62542,-0.15704 4.12972,-0.33073 z m -0.4155,-8.11044 c 1.24632,-0.47385 1.74757,-1.22542 1.74757,-2.62032 0,-1.02178 -0.13703,-1.42384 -0.66521,-1.95205 -0.84209,-0.84209 -1.63267,-0.99444 -5.16038,-0.99444 -2.35387,0 -2.87695,0.0727 -3.00964,0.41851 -0.21812,0.56843 -0.20474,5.00542 0.0159,5.22593 0.27401,0.27401 6.32159,0.20762 7.07187,-0.0776 z M 3.5790208,231.59598 c -1.2319398,-0.0656 -9.0847814,-0.21772 -46.3020858,-0.8972 -28.644786,-0.52298 -38.322264,-0.79646 -38.679697,-1.09311 -0.510263,-0.42348 -0.421235,-1.22228 0.171585,-1.53955 0.359852,-0.19259 3.852482,-0.19678 11.44323,-0.0137 6.008914,0.14489 17.711861,0.38996 26.006549,0.54459 40.0787967,0.74715 51.436095,1.00373 51.701914,1.16802 0.4460716,0.27568 0.3486943,1.65507 -0.129802,1.83868 -0.3983593,0.15287 -1.2229915,0.15136 -4.2116932,-0.008 z m -12.1708339,-5.01242 c -9.0222919,-0.76001 -25.1552619,-2.12037 -35.8510429,-3.02302 -10.695782,-0.90264 -19.595704,-1.76236 -19.777605,-1.91049 -0.506718,-0.41263 -0.403387,-1.46872 0.161238,-1.64793 0.270582,-0.0859 6.908317,0.38469 14.75052,1.0457 23.166606,1.9527 32.410029,2.73443 44.0069414,3.72171 6.02963223,0.51332 11.2088512,0.89106 11.5093756,0.83942 0.7843785,-0.13479 -1.1329089,-0.65632 -10.4338019,-2.83812 -4.4383856,-1.04116 -11.8202611,-2.78383 -16.4041671,-3.8726 -4.583907,-1.08876 -9.525001,-2.26097 -10.980209,-2.6049 -12.351465,-2.91917 -15.389263,-3.67631 -15.676563,-3.90721 -0.49344,-0.39658 -0.3995,-1.20392 0.175916,-1.51188 0.384297,-0.20567 1.997612,0.0827 6.680729,1.19413 10.717835,2.54363 21.248924,5.03674 29.58971,7.00499 16.7377096,3.94976 19.9405941,4.74442 20.2105856,5.01441 0.1937332,0.19374 0.1453938,0.53594 -0.1600095,1.13278 -0.2406782,0.47035 -0.5120137,1.23219 -0.6029642,1.69297 -0.090948,0.46079 -0.3069167,0.88597 -0.4799251,0.94484 -0.1730084,0.0589 -7.69643585,-0.51478 -16.7187279,-1.2748 z m 109.6697931,-2.5921 c 0,-0.0549 0.20836,-0.2633 0.46302,-0.46302 0.41965,-0.32911 0.42901,-0.31975 0.0999,0.0999 -0.34564,0.44073 -0.56292,0.58088 -0.56292,0.36312 z M -8.9886881,213.2367 c -11.1323439,-4.19468 -20.4192199,-7.73703 -20.6375009,-7.87189 -0.218281,-0.13486 -0.434922,-0.50094 -0.481423,-0.8135 -0.168415,-1.13201 -2.109806,-1.7925 28.1303825,9.57046 7.5670837,2.84339 13.9666935,5.25045 14.2213545,5.34904 0.254662,0.0986 0.463021,0.34091 0.463021,0.5385 0,0.35297 -0.815742,0.93254 -1.239377,0.88056 -0.118708,-0.0146 -9.3241129,-3.45849 -20.4564571,-7.65317 z m 82.1626271,5.43936 c -1.532054,-0.41118 -3.052207,-1.86309 -3.052207,-2.91519 0,-0.55342 0.125495,-0.66535 0.746001,-0.66535 0.585274,0 0.827545,0.18341 1.124479,0.85125 0.640059,1.43958 1.83982,1.92688 4.744104,1.92688 2.791404,0 4.019775,-0.43243 4.553051,-1.60285 0.251531,-0.55205 0.206591,-0.74734 -0.294805,-1.28105 -0.66581,-0.70872 -1.709872,-1.03063 -5.258131,-1.62121 -1.350298,-0.22475 -2.779048,-0.53136 -3.175,-0.68137 -2.675668,-1.01366 -2.519132,-3.95923 0.272082,-5.11988 2.083176,-0.86623 5.611511,-0.73976 7.756314,0.27802 1.191101,0.56521 2.151274,1.87236 1.792803,2.44065 -0.459568,0.72857 -0.869355,0.64388 -1.74607,-0.36082 -1.146776,-1.3142 -2.184024,-1.70898 -4.487058,-1.70779 -2.527475,10e-4 -3.64652,0.6059 -3.64652,1.97018 0,1.19056 0.381379,1.38696 3.933,2.02534 5.474076,0.98395 6.703251,1.6344 6.703251,3.54723 0,1.28841 -1.067581,2.39838 -2.802232,2.91352 -1.616935,0.48017 -5.37823,0.48146 -7.163062,0.002 z m 38.735771,0.0418 c -5.37767,-1.51588 -6.42918,-7.98026 -1.71481,-10.54211 3.54625,-1.92707 8.8421,-1.44089 10.99334,1.00925 0.98322,1.11982 1.02087,1.67717 0.11329,1.67717 -0.43595,0 -0.92865,-0.29724 -1.37812,-0.8314 -1.0412,-1.23739 -2.51318,-1.80181 -4.71688,-1.80862 -4.01979,-0.0124 -6.19105,1.70529 -6.19105,4.89787 0,1.40668 0.27494,2.03675 1.4136,3.2395 2.09603,2.21404 7.433,2.16557 9.40942,-0.0855 0.45026,-0.51282 0.81865,-1.22591 0.81865,-1.58465 0,-0.64691 -0.0203,-0.65225 -2.48115,-0.65225 -1.82891,0 -2.5637,-0.0995 -2.7952,-0.37842 -0.2508,-0.3022 -0.20753,-0.43544 0.21479,-0.66146 0.65108,-0.34845 5.83844,-0.36924 6.38201,-0.0256 0.42958,0.2716 0.72974,3.94431 0.42242,5.16875 -0.22398,0.8924 -1.14547,0.89089 -1.36964,-0.002 -0.20708,-0.82511 -0.28247,-0.82281 -1.85586,0.0566 -1.08895,0.60863 -1.64837,0.7291 -3.67135,0.79065 -1.37522,0.0418 -2.89808,-0.0716 -3.59346,-0.26757 z m 15.98108,-0.0173 c -1.52846,-0.50023 -2.60396,-1.32531 -3.01216,-2.31079 -0.30775,-0.74299 -0.29259,-0.87538 0.13618,-1.18891 0.599,-0.438 0.98959,-0.22947 1.78593,0.95347 0.80499,1.19579 1.6515,1.58364 3.86067,1.76884 2.17517,0.18236 4.64256,-0.42847 5.08727,-1.2594 0.85696,-1.60125 -0.28213,-2.37565 -4.62981,-3.1475 -1.74037,-0.30898 -3.65406,-0.77841 -4.25263,-1.04319 -2.37302,-1.0497 -2.10616,-3.47001 0.52641,-4.77427 1.68345,-0.83403 5.1532,-0.93522 7.04398,-0.20542 2.03382,0.78501 3.30164,2.55071 2.29653,3.19838 -0.38662,0.24913 -0.64153,0.0995 -1.58952,-0.93307 -1.29799,-1.41378 -2.10742,-1.65873 -4.95029,-1.4981 -1.48745,0.084 -1.96598,0.22452 -2.51186,0.73734 -1.43199,1.3453 -0.41119,2.68187 2.32006,3.03776 2.36881,0.30866 5.28849,0.97179 6.12393,1.39088 1.10338,0.55351 1.71671,1.38528 1.7237,2.33762 0.008,1.07077 -0.59165,1.86479 -1.92982,2.55591 -1.40403,0.72514 -6.27075,0.95576 -8.02857,0.38045 z m 30.2049,0.13207 c -1.34795,-0.35082 -2.77838,-1.1323 -3.62831,-1.98223 -2.23116,-2.23116 -2.00759,-6.0075 0.47691,-8.05543 3.59585,-2.96401 10.85534,-2.17707 12.95412,1.40425 1.82007,3.1057 0.59408,6.57273 -2.85961,8.0868 -1.48707,0.65192 -5.36535,0.95725 -6.94311,0.54661 z m 5.31701,-1.21638 c 4.65374,-1.38201 4.74407,-7.53112 0.13362,-9.0949 -1.11544,-0.37834 -4.06093,-0.39413 -5.37626,-0.0288 -3.46187,0.96146 -4.65819,5.30878 -2.15087,7.81609 1.54879,1.54879 4.70297,2.10665 7.39351,1.30764 z m -150.486849,0.31228 c -0.629611,-0.4791 -3.1688091,-2.40478 -5.6426634,-4.2793 -9.9876615,-7.56795 -11.0092283,-8.39441 -10.9206882,-8.83498 0.2251975,-1.12056 1.4979916,-0.34065 10.0930768,6.18456 4.7835638,3.63159 8.7597408,6.76538 8.8359518,6.96397 0.141993,0.37003 -0.356019,0.82556 -0.910469,0.8328 -0.170757,0.002 -0.8256,-0.38794 -1.455208,-0.86705 z m 27.20977,0.69471 c -0.09701,-0.097 -0.17639,-2.58275 -0.17639,-5.52385 0,-4.38952 0.06989,-5.40547 0.390144,-5.67126 0.284154,-0.23582 1.59594,-0.29786 4.828646,-0.22835 3.783751,0.0814 4.592106,0.17313 5.479762,0.62212 2.16159,1.09337 2.509507,2.63534 0.92796,4.11272 -0.428226,0.40002 -0.778595,0.78417 -0.778595,0.85365 0,0.0695 0.361929,0.27624 0.804288,0.45947 1.06743,0.44215 1.576962,1.22259 1.576962,2.41541 0,1.21533 -1.048771,2.36214 -2.579648,2.82081 -1.117513,0.33481 -10.157376,0.45503 -10.473129,0.13928 z m 10.336072,-1.40806 c 0.747348,-0.49228 1.123286,-1.54509 0.832456,-2.33128 -0.404738,-1.09411 -1.728594,-1.39834 -5.731751,-1.3172 l -3.628792,0.0736 -0.07976,1.69193 c -0.04387,0.93056 -0.01365,1.8642 0.06715,2.07477 0.210471,0.54847 7.671218,0.38095 8.540705,-0.19177 z m -0.713573,-5.43182 c 0.968899,-0.50104 1.255371,-1.49295 0.683321,-2.366 -0.57767,-0.88164 -1.61009,-1.04846 -6.050439,-0.97763 l -2.579688,0.0412 v 1.67569 c 0,0.92164 0.07937,1.75507 0.17639,1.85209 0.09701,0.097 1.710269,0.17639 3.585014,0.17639 2.530552,0 3.608727,-0.10348 4.185402,-0.40169 z m 4.753195,6.62715 c 0,-0.48401 5.992797,-10.7534 6.448362,-11.05006 0.547478,-0.3565 1.489326,-0.20832 1.927336,0.30324 0.935503,1.09259 6.163217,10.72577 5.94115,10.94784 -0.579707,0.57971 -1.454634,0.0192 -2.391116,-1.53169 l -0.958554,-1.5875 H 61.676298 57.8741 l -0.958479,1.5875 c -0.746946,1.23714 -1.118029,1.60597 -1.681396,1.67122 -0.521748,0.0604 -0.72291,-0.0343 -0.72291,-0.34055 z m 10.04247,-4.57182 c -0.02501,-0.42419 -2.518318,-4.66016 -2.796977,-4.75188 -0.240091,-0.079 -3.01216,4.35306 -3.01216,4.81594 0,0.0739 1.309688,0.13438 2.910417,0.13438 1.600729,0 2.905152,-0.0893 2.89872,-0.19844 z m 21.56127,4.62307 c -0.07131,-0.18583 -0.09734,-2.77389 -0.05784,-5.75125 0.06781,-5.11127 0.100367,-5.41886 0.583491,-5.51173 1.047753,-0.20141 1.208114,0.56965 1.208114,5.80895 0,2.72518 -0.07227,5.1432 -0.160599,5.37338 -0.191847,0.49995 -1.388716,0.5613 -1.573162,0.0806 z m 5.074854,-0.0663 c -0.282684,-0.73666 -0.187839,-10.17329 0.107799,-10.72569 0.164065,-0.30656 0.552556,-0.51178 0.968827,-0.51178 0.544341,0 1.732053,1.01772 5.480797,4.69636 l 4.785858,4.69635 0.13229,-4.41943 c 0.13852,-4.62723 0.28439,-5.1706 1.30149,-4.84779 0.55139,0.17501 0.55979,0.27407 0.48966,5.78097 l -0.0714,5.60292 -0.8898,0.0851 c -0.83497,0.0799 -1.16975,-0.19317 -5.433516,-4.43177 -2.499046,-2.4843 -4.685369,-4.51691 -4.858494,-4.51691 -0.227896,0 -0.334799,1.22319 -0.387318,4.43177 l -0.07254,4.43177 -0.693804,0.0805 c -0.45209,0.0524 -0.75167,-0.0703 -0.859895,-0.35237 z m 53.468281,0.23996 c -0.1037,-0.1037 -0.18854,-2.43088 -0.18854,-5.17152 0,-2.74065 -0.0893,-4.98906 -0.19844,-4.99648 -0.10914,-0.007 -1.27,-0.0372 -2.57968,-0.0661 -2.61093,-0.0577 -3.26221,-0.26313 -2.75858,-0.86997 0.45652,-0.55006 12.46897,-0.55006 12.92549,0 0.4891,0.58933 -0.0731,0.76402 -2.73801,0.85077 -1.321,0.043 -2.48854,0.0828 -2.59454,0.0885 -0.106,0.006 -0.22506,2.30227 -0.26459,5.10355 l -0.0719,5.09323 -0.67136,0.0783 c -0.36925,0.0431 -0.7562,-0.007 -0.85989,-0.11024 z m 26.70047,-0.23996 c -0.0913,-0.23806 -0.16609,-2.66252 -0.16609,-5.3877 0,-5.37208 0.15922,-6.08682 1.27693,-5.73207 0.53932,0.17117 0.57515,0.34529 0.57515,2.79493 0,1.47547 0.11644,2.68436 0.26755,2.77774 0.14715,0.0909 2.35803,-1.15938 4.91308,-2.77851 4.42711,-2.80544 5.79958,-3.38494 5.79958,-2.44875 0,0.18196 -1.36922,1.20829 -3.04271,2.28074 -1.67349,1.07246 -3.0427,2.07362 -3.0427,2.2248 0,0.15118 1.51804,1.59884 3.37343,3.21703 1.85539,1.61818 3.37344,3.05776 3.37344,3.19907 0,0.1413 -0.38695,0.25388 -0.8599,0.25018 -0.70776,-0.006 -1.42163,-0.49483 -4.03489,-2.7654 -1.74625,-1.51726 -3.41313,-2.76143 -3.70417,-2.76482 -0.29104,-0.003 -1.08921,0.40476 -1.7737,0.907 l -1.24454,0.91318 -0.0784,1.79224 c -0.075,1.71381 -0.10874,1.79577 -0.77218,1.87271 -0.45209,0.0524 -0.75167,-0.0703 -0.8599,-0.35237 z m 15.50531,-5.35049 0.0713,-5.75469 5.39012,-0.0717 c 3.84349,-0.0512 5.49796,0.0178 5.7659,0.24014 0.81471,0.67613 -0.20783,0.8901 -4.88492,1.02221 l -4.6836,0.13229 v 1.71979 1.71979 l 4.49792,0.1323 c 4.27744,0.1258 4.49791,0.15823 4.49791,0.66145 0,0.50478 -0.20071,0.53253 -4.35422,0.60213 -3.07729,0.0516 -4.41457,0.16796 -4.56001,0.39688 -0.26729,0.4207 -0.26705,3.1379 0,3.55873 0.14724,0.2318 1.56128,0.34509 4.95347,0.39688 4.27744,0.0653 4.75621,0.1183 4.83635,0.53549 0.0825,0.42968 -0.33192,0.46302 -5.75646,0.46302 h -5.84539 l 0.0713,-5.75469 z m -168.730182,3.90695 c -0.492565,-0.79699 -7.029279,-20.26983 -6.962167,-20.74027 0.05039,-0.35324 0.271576,-0.56303 0.593603,-0.56303 0.62873,0 0.663051,0.0864 4.767059,11.99911 2.542321,7.37961 3.061671,9.13266 2.76184,9.32251 -0.489347,0.30985 -0.962128,0.30238 -1.160335,-0.0183 z m 4.482764,-0.33831 c -0.173342,-0.45172 0.800923,-12.45852 1.042657,-12.84966 0.254169,-0.41125 1.129347,-0.39724 1.286711,0.0206 0.1333,0.35395 -0.785141,12.2779 -0.988404,12.83229 -0.157999,0.43092 -1.175303,0.42847 -1.340964,-0.003 z"
         id="path238" />
      <path
         style="opacity:0;fill:none;stroke-width:0.264583"
         d="M -86.247025,227.39865 V 190.22469 H 60.067565 206.38216 v 37.17396 37.17396 H 60.067565 -86.247025 Z m 52.997298,27.67448 c 4.53956,-1.87773 14.802184,-6.10903 22.80583,-9.40289 19.478031,-8.01608 19.8091095,-8.15427 20.0757327,-8.37955 0.3249613,-0.27456 -0.017251,-1.46941 -0.4706673,-1.64341 -0.3351239,-0.1286 -7.0230844,2.57656 -38.9196494,15.74228 -4.947708,2.04223 -9.853856,4.06689 -10.902548,4.49925 -1.227945,0.50625 -1.96569,0.9719 -2.072381,1.30806 -0.186412,0.58733 0.277217,1.29032 0.850977,1.29032 0.208428,0 4.093147,-1.53633 8.632706,-3.41406 z m 26.9904119,-1.65184 c 1.2721828,-0.66787 18.8654991,-11.43668 19.2971901,-11.81175 0.621795,-0.54023 0.583359,-0.80595 -0.165967,-1.14737 -0.565963,-0.25786 -1.553547,0.27687 -9.8557301,5.33645 -5.0747086,3.09267 -9.5541628,5.85166 -9.9543451,6.13111 -0.9719708,0.67871 -0.9636364,1.52878 0.017383,1.77407 0.045947,0.0115 0.3436038,-0.11564 0.6614584,-0.28251 z M 26.840866,241.27074 c 2.78325,-1.04933 5.393679,-3.68854 6.502961,-6.57466 2.988043,-7.77428 -3.192886,-16.23935 -11.357658,-15.55484 -4.647105,0.38959 -8.69291,3.66217 -9.973551,8.06742 -0.588788,2.02537 -0.392489,5.7803 0.408913,7.82194 1.233964,3.14362 4.786435,6.05309 8.28552,6.78583 1.556896,0.32603 4.521108,0.0623 6.133815,-0.54569 z m -52.366013,-3.174 c 22.0234915,-2.44112 33.7197951,-3.83895 33.9436882,-4.05662 0.2529734,-0.24595 0.2718356,-0.51562 0.072694,-1.0394 -0.1478995,-0.389 -0.3737425,-0.70728 -0.5018697,-0.70728 -0.1281297,0 -7.66178067,0.82732 -16.7414476,1.83849 -9.0796639,1.01116 -24.2475449,2.68166 -33.7063989,3.71221 -9.458855,1.03055 -17.644402,1.99395 -18.190105,2.14089 -0.780417,0.21013 -0.992188,0.39665 -0.992188,0.87389 0,0.83362 0.187454,0.95931 1.43316,0.96092 0.59421,7.7e-4 16.20132,-1.67463 34.682467,-3.7231 z m 93.768308,0.40329 c 1.654522,-0.90051 2.51528,-1.85707 3.442216,-3.82534 0.594662,-1.26272 0.685314,-1.8052 0.685314,-4.10104 0,-2.29585 -0.09065,-2.83833 -0.685314,-4.10104 -0.924554,-1.96322 -1.787332,-2.92464 -3.423917,-3.81538 -2.792058,-1.51963 -6.469912,-1.13951 -8.797415,0.90924 -1.808022,1.59148 -2.651525,3.51333 -2.787163,6.35033 -0.181491,3.79607 0.971518,6.48727 3.530682,8.24082 1.442405,0.98835 2.580921,1.26945 4.772565,1.17837 1.460796,-0.0607 2.174634,-0.24358 3.263032,-0.83596 z m -5.688229,-1.93343 c -1.887109,-0.88278 -3.017648,-3.1176 -3.015057,-5.96007 0.0028,-3.0255 0.928999,-4.91488 2.911075,-5.93808 2.334493,-1.20512 5.173748,-0.20425 6.381957,2.24972 0.519242,1.05462 0.627367,1.68463 0.627367,3.65548 0,1.97084 -0.108125,2.60086 -0.627367,3.65548 -1.18114,2.39898 -3.945933,3.42839 -6.277975,2.33747 z m 23.327556,2.13783 c 1.585042,-0.81261 2.93337,-2.44364 3.428728,-4.14762 0.233868,-0.80447 0.35066,-1.58329 0.25954,-1.73073 -0.09112,-0.14743 -0.705572,-0.26806 -1.365451,-0.26806 -0.987546,0 -1.224904,0.0961 -1.34181,0.54313 -0.66724,2.55153 -2.628721,4.11945 -4.803709,3.83987 -1.656155,-0.21288 -2.739084,-0.9896 -3.611677,-2.59042 -0.664316,-1.21872 -0.76237,-1.68088 -0.773268,-3.64466 -0.01077,-1.94214 0.08852,-2.45465 0.727882,-3.75662 0.964715,-1.96452 2.108742,-2.70596 4.19291,-2.7174 1.755153,-0.01 2.582468,0.47553 3.749318,2.19869 0.682522,1.00793 0.841753,1.10033 1.896179,1.10033 0.683294,0 1.197713,-0.13441 1.265817,-0.33073 0.205965,-0.59374 -0.60339,-2.42572 -1.470946,-3.32949 -1.528485,-1.59229 -2.668294,-2.02429 -5.34656,-2.02642 -2.143776,-0.002 -2.521717,0.0759 -3.789773,0.77834 -2.923894,1.61968 -4.579435,5.14612 -4.18547,8.91538 0.399531,3.82249 2.204892,6.34912 5.383035,7.53363 1.415426,0.52753 4.410859,0.3374 5.785255,-0.36722 z m 62.854332,0.3285 c 0.65253,-0.22234 1.6155,-0.75793 2.13992,-1.19021 1.14271,-0.94192 2.32416,-3.19291 2.32416,-4.42818 0,-0.81363 -0.0627,-0.88434 -0.71662,-0.80794 -0.58649,0.0685 -0.79653,0.30787 -1.15669,1.31813 -0.93521,2.62332 -2.65449,3.93028 -5.15553,3.91915 -3.58072,-0.0159 -5.93574,-2.90043 -5.93574,-7.27023 0,-2.25881 0.51204,-3.90329 1.64231,-5.27451 2.53786,-3.07886 7.59854,-2.50858 9.23947,1.04117 0.25539,0.55249 0.58749,0.8192 1.09257,0.87747 0.62756,0.0724 0.72565,-0.01 0.72565,-0.60845 0,-0.92813 -0.56255,-1.94605 -1.63107,-2.95137 -1.28344,-1.20753 -2.49822,-1.73585 -4.32921,-1.88283 -3.44496,-0.27653 -6.03424,1.21528 -7.5885,4.3721 -0.80011,1.62508 -0.87101,1.97415 -0.87101,4.28838 0,4.65033 1.91889,7.60333 5.68854,8.75416 1.12145,0.34237 3.28658,0.26744 4.53175,-0.15684 z m 28.90735,0.0808 c 0.65805,-0.19542 1.57528,-0.80756 2.31772,-1.54682 1.69241,-1.68514 1.86696,-2.65162 1.76398,-9.76798 -0.0756,-5.22488 -0.12075,-5.69249 -0.55798,-5.77654 -1.16221,-0.22341 -1.24407,0.20527 -1.24407,6.51569 0,5.48679 -0.0441,6.06054 -0.54507,7.09545 -0.77258,1.59597 -2.30702,2.31516 -4.62464,2.16759 -1.92002,-0.12226 -2.83824,-0.64323 -3.69383,-2.0958 -0.47776,-0.81111 -0.54202,-1.51502 -0.66146,-7.2452 -0.12172,-5.83946 -0.17032,-6.3541 -0.60802,-6.438 -1.1418,-0.21884 -1.24406,0.25541 -1.24406,5.76964 0,2.87273 0.12109,5.8617 0.2691,6.64215 0.29906,1.57692 1.23445,3.17517 2.24634,3.83818 1.7247,1.13006 4.44111,1.47741 6.58199,0.84164 z M 42.622458,238.89871 c 0.467074,-0.24997 0.511773,-0.58504 0.511773,-3.83645 v -3.56257 h 3.704167 3.704167 v 3.42068 c 0,2.75694 0.08068,3.50136 0.415774,3.83646 0.476866,0.47687 1.500751,0.54151 2.247453,0.14188 0.488669,-0.26152 0.511773,-0.6354 0.511773,-8.28145 0,-5.87533 -0.08454,-8.09211 -0.3175,-8.32507 -0.425379,-0.42538 -2.190856,-0.40508 -2.551388,0.0293 -0.1593,0.19195 -0.321464,1.69843 -0.363125,3.37344 l -0.07528,3.0266 h -3.571875 -3.571875 l -0.07528,-3.0266 c -0.04344,-1.74632 -0.201639,-3.17886 -0.373996,-3.38654 -0.186346,-0.22453 -0.705453,-0.33012 -1.379929,-0.28068 l -1.081212,0.0792 -0.06998,8.31639 c -0.05451,6.47715 0.004,8.36336 0.264584,8.52876 0.468098,0.29714 1.464754,0.27144 2.071751,-0.0534 z m 52.48076,0.1133 c 0.342694,-0.13151 0.418515,-0.63588 0.418515,-2.78404 v -2.62344 l 1.092031,-1.18471 c 0.600617,-0.65159 1.192152,-1.18471 1.314519,-1.18471 0.12237,0 1.377736,1.71784 2.789707,3.81744 1.55896,2.31816 2.78324,3.87544 3.11725,3.96513 1.08631,0.2917 2.54734,0.16451 2.70069,-0.23511 0.0904,-0.23553 -1.11823,-2.18001 -3.05101,-4.90863 -1.76038,-2.48523 -3.20069,-4.71887 -3.20069,-4.96364 0,-0.24477 1.32467,-1.77348 2.94372,-3.39713 1.6936,-1.69841 2.86676,-3.0766 2.76251,-3.24528 -0.0997,-0.16126 -0.78597,-0.2932 -1.52512,-0.2932 h -1.34392 l -3.442233,3.58083 c -1.893231,1.96946 -3.573397,3.53742 -3.7337,3.48435 -0.182742,-0.0605 -0.340809,-1.37152 -0.423754,-3.51469 l -0.132291,-3.4182 -0.759574,-0.0868 c -0.417767,-0.0478 -1.042845,-0.0157 -1.389063,0.0712 l -0.629489,0.15799 v 8.14413 c 0,5.98154 0.08431,8.22844 0.3175,8.46163 0.338903,0.3389 1.484662,0.42158 2.174402,0.1569 z m 25.804172,-0.219 c 0.17327,-0.20877 0.27714,-0.77432 0.23083,-1.25677 l -0.0842,-0.87718 -3.96875,-0.0641 c -5.60115,-0.0905 -5.19526,0.12069 -5.10342,-2.65544 l 0.0763,-2.30751 4.01923,-0.0729 c 3.78442,-0.0687 4.02927,-0.10459 4.19108,-0.61441 0.0945,-0.2978 0.10008,-0.82743 0.0123,-1.17694 -0.15861,-0.63198 -0.18179,-0.6359 -4.19107,-0.70851 l -4.03159,-0.073 v -2.11667 -2.11667 l 4.36563,-0.13229 4.36562,-0.13229 0.0845,-1.0314 c 0.0529,-0.64627 -0.0459,-1.11404 -0.26459,-1.25272 -0.57561,-0.36498 -11.16869,-0.28414 -11.54091,0.0881 -0.23295,0.23295 -0.3175,2.44888 -0.3175,8.32123 0,7.34347 0.0382,8.02597 0.46302,8.27341 0.27255,0.15874 2.70821,0.27299 5.92073,0.27773 4.4253,0.007 5.5173,-0.0638 5.77274,-0.37155 z m 10.01559,0.0621 c 0.21027,-0.21027 0.31759,-1.34968 0.31775,-3.37344 l 2.5e-4,-3.05594 2.92292,-4.86918 c 1.60761,-2.67805 2.86139,-5.02953 2.78618,-5.22552 -0.20886,-0.54428 -2.35839,-0.46403 -2.85755,0.10668 -0.22274,0.25466 -1.20363,1.86201 -2.17977,3.57188 -0.97613,1.70987 -1.91632,3.10885 -2.08931,3.10885 -0.17298,0 -1.01491,-1.22039 -1.87094,-2.71198 -2.4615,-4.28901 -2.59416,-4.43177 -4.11821,-4.43177 -0.71161,0 -1.36321,0.11225 -1.44801,0.24945 -0.0848,0.1372 1.18753,2.42915 2.82738,5.09323 l 2.98155,4.84378 0.0904,3.30586 c 0.0583,2.13321 0.19955,3.37532 0.39815,3.50168 0.48386,0.30784 1.88909,0.23657 2.23923,-0.11358 z m 36.03626,-0.0794 c 0.26019,-0.31351 0.26128,-0.47892 0.005,-0.78748 -0.25729,-0.31001 -1.23293,-0.40554 -4.72875,-0.46302 l -4.40459,-0.0724 -0.13229,-7.66947 c -0.12269,-7.11265 -0.16683,-7.67611 -0.60802,-7.76091 -1.20092,-0.23082 -1.24406,0.065 -1.24406,8.5307 0,5.85737 0.0846,8.06906 0.3175,8.30198 0.22487,0.22487 1.79784,0.3175 5.39156,0.3175 4.1875,0 5.13161,-0.0693 5.40344,-0.39688 z m 27.97291,-0.003 c 2.37654,-0.70575 3.80693,-3.06424 3.2802,-5.40851 -0.31951,-1.42208 -0.90998,-2.28684 -1.91704,-2.80761 l -0.82145,-0.42479 0.79219,-0.83749 c 1.1017,-1.16468 1.38485,-1.81128 1.38485,-3.16222 0,-1.40888 -0.78441,-2.69864 -2.11756,-3.4818 -0.81476,-0.47862 -1.46024,-0.55413 -5.40967,-0.63277 -4.05464,-0.0807 -4.51755,-0.0442 -4.82865,0.3813 -0.43736,0.59812 -0.50152,15.45598 -0.0702,16.26185 0.25244,0.47171 0.5905,0.51177 4.3176,0.51177 2.83689,0 4.44543,-0.11929 5.38975,-0.39973 z m -7.96856,-1.60628 c -0.0883,-0.23018 -0.1606,-1.53013 -0.1606,-2.88878 0,-1.35864 0.0723,-2.65859 0.1606,-2.88877 0.13319,-0.34711 0.6636,-0.41827 3.10885,-0.41704 4.65746,0.002 6.19387,0.6987 6.43724,2.91767 0.10371,0.94562 0.004,1.36702 -0.49821,2.10794 -0.85858,1.26636 -1.90016,1.55502 -5.67444,1.57256 -2.69476,0.0125 -3.23874,-0.0525 -3.37344,-0.40358 z m 0.0159,-7.95996 c -0.22053,-0.22051 -0.23391,-4.6575 -0.0159,-5.22593 0.13269,-0.34577 0.65577,-0.41851 3.00964,-0.41851 3.52771,0 4.31829,0.15234 5.16038,0.99444 0.52818,0.5282 0.66521,0.93027 0.66521,1.95205 0,1.3949 -0.50125,2.14647 -1.74757,2.62032 -0.75028,0.28525 -6.79786,0.35164 -7.07186,0.0776 z m -179.1886966,2.3972 c 0.4784963,-0.18361 0.5758736,-1.563 0.1298019,-1.83869 -0.2658189,-0.16428 -11.6231172,-0.42086 -51.7019143,-1.16801 -8.294688,-0.15463 -19.997635,-0.3997 -26.006549,-0.54459 -7.590748,-0.18304 -11.083378,-0.17885 -11.44323,0.0137 -0.592819,0.31726 -0.681848,1.11607 -0.171585,1.53955 0.357434,0.29664 10.034911,0.57013 38.679698,1.0931 37.2173038,0.67949 45.0701454,0.83165 46.3020851,0.89721 2.9887018,0.15905 3.813334,0.16056 4.2116933,0.008 z m 0.8161258,-4.69015 c 0.090951,-0.46078 0.3622861,-1.22262 0.6029643,-1.69297 0.3054033,-0.59684 0.3537427,-0.93905 0.1600094,-1.13278 -0.2700708,-0.26999 -3.4729553,-1.06465 -20.2106649,-5.01441 -8.340786,-1.96825 -18.871875,-4.46136 -29.58971,-7.00499 -6.414577,-1.52235 -7.187375,-1.56918 -7.187375,-0.43552 0,0.91584 -0.703654,0.71098 16.007293,4.66048 1.455208,0.34393 6.396302,1.51614 10.980209,2.6049 4.583906,1.08877 11.9657815,2.83144 16.4041671,3.8726 9.300893,2.1818 11.2181804,2.70333 10.4338019,2.83812 -0.3005244,0.0516 -5.47974337,-0.3261 -11.5093756,-0.83942 -11.5969124,-0.98728 -20.8403354,-1.76901 -44.0069414,-3.72171 -7.842203,-0.66101 -14.479938,-1.13158 -14.75052,-1.0457 -0.564625,0.17921 -0.667956,1.2353 -0.161238,1.64793 0.181901,0.14813 9.081823,1.00785 19.777605,1.91049 10.695781,0.90265 26.828751,2.26301 35.8510429,3.02302 9.02229205,0.76002 16.5457195,1.33368 16.7187279,1.2748 0.1730084,-0.0589 0.3889772,-0.48405 0.4799251,-0.94484 z m 3.5885338,-6.27106 c 0.637455,-0.34115 0.66213,-0.9342 0.04875,-1.17165 -0.898822,-0.34793 -28.067875,-10.55178 -34.623028,-13.00331 -3.65379,-1.36646 -6.906525,-2.48448 -7.228298,-2.48448 -0.448318,0 -0.565279,0.13281 -0.500491,0.56829 0.0465,0.31256 0.263142,0.67864 0.481423,0.8135 0.409403,0.25295 40.708696,15.47779 41.093958,15.52506 0.118708,0.0146 0.44613,-0.0968 0.727604,-0.2474 z m 68.141628,-1.96884 c 1.734571,-0.51514 2.802152,-1.62511 2.802152,-2.91352 0,-1.91283 -1.229175,-2.56328 -6.703251,-3.54723 -3.551621,-0.63838 -3.933,-0.83478 -3.933,-2.02534 0,-1.36428 1.119045,-1.96889 3.64652,-1.97018 2.303034,-0.001 3.340282,0.39359 4.487058,1.70779 0.876715,1.0047 1.286502,1.08939 1.74607,0.36082 0.358471,-0.56829 -0.601702,-1.87544 -1.792803,-2.44065 -2.144803,-1.01778 -5.673138,-1.14425 -7.756314,-0.27802 -2.791214,1.16065 -2.94775,4.10622 -0.272082,5.11988 0.395952,0.15001 1.824702,0.45662 3.175,0.68137 3.548259,0.59058 4.592321,0.91249 5.258131,1.62121 0.501396,0.53371 0.546336,0.729 0.294805,1.28105 -0.533276,1.17042 -1.761647,1.60285 -4.553051,1.60285 -2.904284,0 -4.104045,-0.4873 -4.744104,-1.92688 -0.296934,-0.66784 -0.539205,-0.85125 -1.124479,-0.85125 -0.620506,0 -0.746001,0.11193 -0.746001,0.66535 0,1.0521 1.520153,2.50401 3.052207,2.91519 1.784832,0.47902 5.546127,0.47773 7.163062,-0.002 z M 119.1746,218.1948 c 1.57339,-0.87938 1.64878,-0.88168 1.85586,-0.0566 0.22417,0.89313 1.14566,0.89465 1.36964,0.002 0.30732,-1.22444 0.007,-4.89716 -0.42242,-5.16875 -0.54357,-0.34366 -5.73093,-0.32287 -6.38201,0.0256 -0.42232,0.22602 -0.46559,0.35926 -0.21479,0.66145 0.23142,0.27882 0.96621,0.3783 2.79512,0.3783 2.46083,0 2.48115,0.005 2.48115,0.65225 0,0.35874 -0.36839,1.07183 -0.81865,1.58465 -1.97642,2.25102 -7.31339,2.29949 -9.40942,0.0855 -1.13866,-1.20275 -1.4136,-1.83282 -1.4136,-3.2395 0,-3.19258 2.17126,-4.91031 6.19105,-4.89787 2.2037,0.007 3.67568,0.57123 4.71688,1.80862 0.74603,0.88661 2.05666,1.16938 2.05666,0.44373 0,-0.69017 -1.55056,-2.17729 -2.84235,-2.72605 -3.82129,-1.62333 -9.05035,-0.56168 -11.00929,2.23522 -1.34784,1.9244 -1.2338,4.6521 0.26919,6.43831 1.6728,1.98801 3.56631,2.67112 7.10555,2.56345 2.02298,-0.0615 2.5824,-0.18202 3.67135,-0.79065 z m 16.74483,0.12537 c 1.33818,-0.69113 1.9377,-1.48514 1.92983,-2.55592 -0.007,-0.95234 -0.62032,-1.78411 -1.7237,-2.33761 -0.83544,-0.4191 -3.75512,-1.08222 -6.12393,-1.39088 -2.73126,-0.3559 -3.75205,-1.69247 -2.32006,-3.03776 0.54588,-0.51282 1.02441,-0.65329 2.51186,-0.73734 2.84287,-0.16064 3.6523,0.0843 4.95029,1.4981 0.94799,1.03255 1.2029,1.18219 1.58952,0.93307 1.00511,-0.64767 -0.26271,-2.41337 -2.29653,-3.19838 -1.89078,-0.72981 -5.36053,-0.62862 -7.04398,0.20542 -1.75406,0.86901 -2.49812,2.16016 -1.97401,3.42546 0.48003,1.1589 1.74534,1.68986 5.70023,2.39199 4.34767,0.77186 5.48677,1.54625 4.6298,3.1475 -0.4447,0.83094 -2.91209,1.44177 -5.08726,1.25941 -2.20917,-0.18521 -3.05568,-0.57306 -3.86067,-1.76885 -0.79634,-1.18294 -1.18693,-1.39146 -1.78593,-0.95346 -0.42877,0.31352 -0.44393,0.44592 -0.13618,1.1889 0.7879,1.90217 2.96606,2.70434 7.02331,2.58656 2.35278,-0.0683 3.12252,-0.19403 4.01741,-0.65621 z m 29.11944,-0.0341 c 3.4537,-1.51408 4.67969,-4.9811 2.85962,-8.0868 -2.09878,-3.58132 -9.35827,-4.36826 -12.95412,-1.40425 -2.4845,2.04793 -2.70807,5.82427 -0.47691,8.05543 1.63941,1.63941 3.4964,2.21704 6.80331,2.11621 1.78788,-0.0545 2.72684,-0.22411 3.7681,-0.68059 z m -6.8758,-0.70312 c -3.71197,-1.14144 -4.70711,-5.67841 -1.78492,-8.13727 1.03685,-0.87245 2.33906,-1.22601 4.52233,-1.22786 2.90575,-0.002 4.71015,0.89103 5.55461,2.75048 2.07244,4.56338 -2.66734,8.34433 -8.2921,6.61465 z m -143.102185,0.97479 c 0.203105,-0.1286 0.30693,-0.39631 0.230722,-0.59491 -0.07621,-0.1986 -4.052388,-3.33238 -8.8359514,-6.96397 -8.5950853,-6.52522 -9.8678793,-7.30512 -10.0930768,-6.18456 -0.08854,0.44057 0.9330267,1.26703 10.9206882,8.83498 2.4738542,1.87451 5.013053,3.8002 5.642663,4.2793 1.202624,0.91514 1.530649,1.01181 2.134955,0.62916 z m 35.547944,-0.0737 c 1.530798,-0.45867 2.579569,-1.60548 2.579569,-2.82081 0,-1.19282 -0.509532,-1.97326 -1.576962,-2.41541 -0.442359,-0.18323 -0.804288,-0.38999 -0.804288,-0.45947 0,-0.0695 0.350369,-0.45363 0.778595,-0.85365 1.581547,-1.47738 1.23363,-3.01935 -0.92796,-4.11272 -0.887656,-0.44899 -1.696011,-0.54077 -5.479762,-0.62212 -3.232706,-0.0695 -4.544492,-0.007 -4.828646,0.22835 -0.320255,0.26579 -0.390144,1.28174 -0.390144,5.67126 0,2.9411 0.07937,5.42684 0.17639,5.52385 0.315753,0.31575 9.355616,0.19553 10.473129,-0.13928 z M 41.931067,217.407 c -0.0808,-0.21056 -0.111016,-1.14421 -0.06715,-2.07476 l 0.07969,-1.69193 3.628792,-0.0736 c 4.003157,-0.0811 5.327013,0.22309 5.731751,1.3172 0.29083,0.78619 -0.08511,1.839 -0.832456,2.33128 -0.869487,0.57272 -8.330234,0.74024 -8.540705,0.19177 z m 0.05672,-5.39829 c -0.09709,-0.097 -0.176469,-0.93044 -0.176469,-1.85208 v -1.67569 l 2.579688,-0.0412 c 2.867562,-0.0457 3.509592,-0.0205 4.764503,0.18758 1.055013,0.1749 1.779939,1.15846 1.544685,2.09579 -0.290692,1.15821 -1.355982,1.46195 -5.127472,1.46195 -1.874745,0 -3.488002,-0.0794 -3.585014,-0.17639 z m 14.927838,5.07119 0.958479,-1.5875 h 3.802198 3.802195 l 0.958554,1.5875 c 0.936482,1.55094 1.811409,2.1114 2.391116,1.53169 0.222067,-0.22207 -5.005647,-9.85525 -5.94115,-10.94784 -0.43801,-0.51156 -1.379858,-0.65974 -1.927336,-0.30324 -0.455565,0.29666 -6.448362,10.56605 -6.448362,11.05006 0,0.30621 0.201162,0.40097 0.72291,0.34055 0.563367,-0.0652 0.93445,-0.43408 1.681396,-1.67122 z m 1.829027,-3.17709 c 0,-0.46288 2.772069,-4.89495 3.01216,-4.81594 0.278659,0.0917 2.771971,4.32769 2.796977,4.75188 0.0064,0.10914 -1.297991,0.19844 -2.89872,0.19844 -1.600729,0 -2.910417,-0.0605 -2.910417,-0.13438 z m 28.943569,4.47836 c 0.08833,-0.23018 0.160599,-2.6482 0.160599,-5.37338 0,-5.2393 -0.160361,-6.01036 -1.208114,-5.80895 -0.483124,0.0929 -0.515686,0.40046 -0.583491,5.51173 -0.03949,2.97736 -0.01347,5.56542 0.05784,5.75125 0.184446,0.48065 1.381315,0.4193 1.573162,-0.0806 z m 5.127935,-4.14554 c 0.05252,-3.20858 0.159422,-4.43177 0.387318,-4.43177 0.173125,0 2.359448,2.03261 4.858494,4.51691 4.263762,4.2386 4.598542,4.51166 5.433512,4.43177 l 0.8898,-0.0851 0.0714,-5.60292 c 0.0701,-5.5069 0.0617,-5.60596 -0.48966,-5.78097 -1.0171,-0.32281 -1.16297,0.22056 -1.30149,4.84779 l -0.13229,4.41943 -4.785854,-4.69635 c -3.748744,-3.67864 -4.936456,-4.69636 -5.480797,-4.69636 -0.416271,0 -0.804762,0.20522 -0.968827,0.51178 -0.295638,0.5524 -0.390483,9.98903 -0.107799,10.72569 0.108225,0.28203 0.407805,0.4048 0.859895,0.35237 l 0.693804,-0.0805 z m 53.445144,-0.66146 c 0.0395,-2.80128 0.15859,-5.09787 0.26459,-5.10355 0.106,-0.006 1.27354,-0.0455 2.59454,-0.0885 2.66493,-0.0868 3.22711,-0.26144 2.73801,-0.85077 -0.45652,-0.55006 -12.46897,-0.55006 -12.92549,0 -0.50363,0.60684 0.14765,0.81223 2.75858,0.86997 1.30968,0.029 2.47054,0.0587 2.57968,0.0661 0.10915,0.007 0.19844,2.25583 0.19844,4.99648 0,2.74064 0.0848,5.06782 0.18854,5.17152 0.10369,0.10369 0.49064,0.1533 0.85989,0.11024 l 0.67136,-0.0783 z m 26.72944,3.30098 0.0784,-1.79224 1.24454,-0.91318 c 0.68449,-0.50224 1.48266,-0.91039 1.7737,-0.907 0.29104,0.003 1.95792,1.24756 3.70417,2.76482 2.61326,2.27057 3.32713,2.75985 4.03489,2.7654 0.47295,0.004 0.8599,-0.10888 0.8599,-0.25018 0,-0.14131 -1.51805,-1.58089 -3.37344,-3.19907 -1.85539,-1.61819 -3.37343,-3.06585 -3.37343,-3.21703 0,-0.15118 1.36921,-1.15234 3.0427,-2.2248 1.67349,-1.07245 3.04271,-2.09878 3.04271,-2.28074 0,-0.93619 -1.37247,-0.35669 -5.79958,2.44875 -2.55505,1.61913 -4.76593,2.86946 -4.91308,2.77851 -0.15111,-0.0934 -0.26755,-1.30227 -0.26755,-2.77774 0,-2.44964 -0.0358,-2.62376 -0.57515,-2.79493 -1.11771,-0.35475 -1.27693,0.35999 -1.27693,5.73207 0,2.72518 0.0747,5.14964 0.16609,5.3877 0.10823,0.28203 0.40781,0.4048 0.8599,0.35237 0.66344,-0.0769 0.69723,-0.1589 0.77218,-1.87271 z m 25.40378,1.46152 c -0.0802,-0.41719 -0.55891,-0.4702 -4.83635,-0.53549 -3.3922,-0.0518 -4.80624,-0.16508 -4.95348,-0.39688 -0.26736,-0.42083 -0.2676,-3.13803 0,-3.55873 0.14545,-0.22892 1.48273,-0.34531 4.56002,-0.39688 4.15319,-0.0696 4.3539,-0.0974 4.3539,-0.60213 0,-0.50322 -0.22047,-0.53565 -4.49791,-0.66145 l -4.49792,-0.1323 v -1.71979 -1.71979 l 4.6836,-0.13229 c 4.67709,-0.13211 5.69963,-0.34608 4.88492,-1.02221 -0.26794,-0.22238 -1.92241,-0.29129 -5.7659,-0.24014 l -5.39012,0.0717 -0.0713,5.75469 -0.0713,5.75469 h 5.84539 c 5.42454,0 5.83898,-0.0333 5.75646,-0.46302 z m -179.100393,-1.3664 c 0.299831,-0.18985 -0.219519,-1.9429 -2.76184,-9.32251 -4.104008,-11.91272 -4.138329,-11.99911 -4.767059,-11.99911 -0.322027,0 -0.543213,0.20979 -0.593603,0.56303 -0.06711,0.47044 6.469602,19.94328 6.962167,20.74027 0.198207,0.3207 0.670988,0.32817 1.160335,0.0183 z m 4.663393,-0.35339 c 0.203263,-0.55439 1.121704,-12.47834 0.988404,-12.83229 -0.157364,-0.41785 -1.032542,-0.43186 -1.286711,-0.0206 -0.241734,0.39114 -1.215999,12.39794 -1.042657,12.84966 0.165661,0.43171 1.182965,0.43416 1.340964,0.003 z"
         id="path240" />
    </g>
  </g>
</svg>
